<?xml version="1.0" standalone="no"?>
<!DOCTYPE svg PUBLIC "-//W3C//DTD SVG 20010904//EN"
 "http://www.w3.org/TR/2001/REC-SVG-20010904/DTD/svg10.dtd">
<svg version="1.0" xmlns="http://www.w3.org/2000/svg"
 width="50.000000pt" height="30.000000pt" viewBox="0 0 96.000000 81.000000"
 preserveAspectRatio="xMidYMid meet">

<g transform="translate(0.000000,81.000000) scale(0.100000,-0.100000)"
fill="#000000" stroke="none">
<path d="M580 736 c0 -8 4 -17 9 -20 11 -7 33 18 24 27 -12 12 -33 7 -33 -7z"/>
<path d="M605 686 c-17 -7 -37 -21 -45 -31 -13 -16 -12 -19 10 -33 42 -27 97
-88 108 -121 14 -40 7 -40 -14 2 -19 37 -83 107 -98 107 -6 0 6 -13 26 -30 36
-30 78 -101 78 -133 0 -13 -11 -16 -60 -16 -38 1 -58 4 -54 11 4 6 -1 6 -14
-1 -27 -14 -40 -14 -39 2 2 63 -3 77 -29 77 -15 0 -23 4 -19 11 4 6 13 8 21 5
12 -5 12 -2 3 16 l-11 21 -14 -24 c-7 -13 -13 -43 -14 -67 0 -47 -19 -64 -47
-41 -10 8 -14 9 -10 2 5 -8 -11 -12 -62 -12 l-69 0 9 31 c5 18 7 34 4 36 -2 2
-8 -11 -13 -29 -6 -27 -14 -35 -35 -37 -17 -2 -27 -9 -27 -20 0 -15 2 -15 10
-2 8 13 10 13 10 -2 0 -9 4 -19 9 -22 5 -4 7 3 4 14 -5 20 0 20 234 20 177 0
242 -3 252 -12 11 -10 13 -10 7 0 -4 7 -2 12 5 12 7 0 10 3 6 6 -7 7 24 44 33
39 3 -2 12 12 20 33 12 33 11 37 -9 50 -24 17 -28 50 -6 58 17 7 21 34 5 34
-5 0 -10 9 -10 21 0 11 -4 18 -9 15 -5 -3 -25 1 -45 9 -43 18 -62 18 -101 1z
m-118 -238 c-2 -13 -4 -3 -4 22 0 25 2 35 4 23 2 -13 2 -33 0 -45z m246 27
c-3 -9 -8 -14 -10 -11 -3 3 -2 9 2 15 9 16 15 13 8 -4z m-28 -35 c-3 -5 -11
-10 -16 -10 -6 0 -7 5 -4 10 3 6 11 10 16 10 6 0 7 -4 4 -10z"/>
<path d="M387 658 c-15 -17 -26 -32 -23 -35 2 -3 -14 -21 -35 -40 -22 -20 -44
-44 -50 -54 -5 -10 12 3 38 29 27 26 64 53 83 60 l35 11 -35 -5 -35 -6 28 27
c15 14 27 30 27 35 0 13 0 13 -33 -22z"/>
<path d="M790 665 c-8 -9 -8 -15 -2 -15 12 0 26 19 19 26 -2 2 -10 -2 -17 -11z"/>
<path d="M315 648 l-20 -21 23 12 c12 6 22 16 22 21 0 13 -2 12 -25 -12z"/>
<path d="M515 620 c27 -12 43 -12 25 0 -8 5 -22 9 -30 9 -10 0 -8 -3 5 -9z"/>
<path d="M400 505 c0 -5 5 -17 10 -25 5 -8 10 -10 10 -5 0 6 -5 17 -10 25 -5
8 -10 11 -10 5z"/>
<path d="M877 491 c-5 -19 -11 -23 -31 -19 -14 3 -23 1 -20 -3 15 -25 71 5 62
33 -3 7 -7 2 -11 -11z"/>
<path d="M85 389 c-4 -6 -4 -13 -1 -16 3 -4 6 -1 6 5 0 15 27 16 35 2 4 -6 1
-17 -5 -25 -7 -9 -8 -15 -2 -15 5 0 13 7 16 16 12 30 -33 60 -49 33z"/>
<path d="M250 311 c0 -5 7 -17 16 -25 8 -9 12 -16 8 -16 -5 0 -3 -5 4 -12 7
-7 12 -20 12 -31 0 -10 5 -15 10 -12 6 4 28 -6 48 -22 33 -25 45 -28 107 -27
84 1 125 6 118 17 -2 4 0 7 5 7 12 0 65 49 85 80 24 34 21 50 -7 48 -13 -1
-22 -7 -19 -14 7 -18 -48 -75 -92 -95 -65 -30 -143 -21 -204 23 -14 10 -20 21
-16 29 5 7 4 10 -3 6 -5 -4 -22 6 -35 23 -26 31 -37 37 -37 21z"/>
<path d="M330 310 c0 -6 -4 -9 -8 -6 -5 3 -9 -1 -9 -8 0 -10 9 -13 26 -10 17
3 22 2 13 -4 -11 -7 -7 -14 14 -31 15 -12 38 -24 52 -28 18 -4 20 -8 10 -14
-8 -5 6 -8 37 -8 28 0 44 3 37 6 -9 3 3 13 28 24 23 10 45 17 50 14 8 -5 32
20 44 45 4 8 -2 4 -13 -9 -25 -28 -27 -20 -5 14 l16 25 -65 0 c-43 0 -67 -4
-70 -12 -4 -10 -6 -10 -6 0 -1 6 -8 12 -16 12 -8 0 -15 -6 -15 -12 0 -8 -3 -9
-8 -3 -11 15 -56 19 -47 4 5 -8 4 -10 -4 -5 -21 13 -61 17 -61 6z m153 -27
c-7 -2 -21 -2 -30 0 -10 3 -4 5 12 5 17 0 24 -2 18 -5z"/>
<path d="M771 278 c0 -9 -7 -19 -13 -22 -7 -2 -3 -4 10 -2 12 1 28 9 35 16 10
12 9 12 -5 1 -14 -10 -17 -9 -21 6 -4 15 -5 15 -6 1z"/>
<path d="M720 271 c0 -6 4 -13 10 -16 6 -3 7 1 4 9 -7 18 -14 21 -14 7z"/>
<path d="M175 261 c-24 -5 -31 -12 -33 -34 -4 -34 20 -56 60 -57 30 0 58 32
58 66 0 32 -22 39 -85 25z"/>
<path d="M340 252 c0 -9 60 -46 64 -40 2 1 -12 13 -30 25 -19 12 -34 19 -34
15z"/>
<path d="M91 224 c0 -11 3 -14 6 -6 3 7 2 16 -1 19 -3 4 -6 -2 -5 -13z"/>
<path d="M540 225 c-14 -8 -20 -14 -14 -15 5 0 19 7 30 15 24 18 16 19 -16 0z"/>
<path d="M110 155 c0 -8 7 -15 15 -15 8 0 15 7 15 15 0 8 -7 15 -15 15 -8 0
-15 -7 -15 -15z"/>
</g>
</svg>
